<mxfile host="app.diagrams.net" agent="Mozilla/5.0 (Macintosh; Intel Mac OS X 10_15_7) AppleWebKit/537.36 (KHTML, like Gecko) Chrome/129.0.0.0 Safari/537.36" version="24.9.0">
  <diagram name="画布1" id="NC4d0v7QYhkzIXXnPjo2">
    <mxGraphModel dx="1026" dy="612" grid="1" gridSize="10" guides="1" tooltips="1" connect="1" arrows="1" fold="1" page="1" pageScale="1" pageWidth="827" pageHeight="1169" math="0" shadow="0">
      <root>
        <mxCell id="0" />
        <mxCell id="1" parent="0" />
        <UserObject label="&lt;div style=&quot;font-size: 1px&quot;&gt;&lt;p style=&quot;text-align:center;margin-left:0;margin-right:0;margin-top:0px;margin-bottom:0px;text-indent:0;vertical-align:middle;direction:ltr;&quot;&gt;&lt;font style=&quot;font-size:12px;font-family:0;color:#000000;direction:ltr;letter-spacing:0px;line-height:120%;opacity:1&quot;&gt;AppActivity&lt;/font&gt;&lt;/p&gt;&lt;/div&gt;" tags="Background" id="4p80e4eXdYzrRjhIBqF1-1">
          <mxCell style="verticalAlign=middle;align=center;overflow=width;vsdxID=1;fillColor=none;gradientColor=none;shape=stencil(UzV2Ls5ILEhVNTIoLinKz04tz0wpyVA1dlE1MsrMy0gtyiwBslSNXVWNndPyi1LTi/JL81Ig/IJEkEoQKze/DGRCBUSfqQFIi5FBJYRromcI5rtB1OZk5uFWa2hggKwW1VxUpQa4DYWZQoZSvI4lWymKA4AMRMhBAh1ZDj2UgUKQGDJ2BQA=);dashed=1;dashPattern=1.00 4.00;strokeColor=#000000;strokeWidth=2;spacingTop=-3;spacingBottom=-3;spacingLeft=-3;spacingRight=-3;points=[];labelBackgroundColor=none;rounded=0;html=1;whiteSpace=wrap;" vertex="1" parent="1">
            <mxGeometry x="37" y="19" width="98" height="731" as="geometry" />
          </mxCell>
        </UserObject>
        <UserObject label="&lt;div style=&quot;font-size: 1px&quot;&gt;&lt;p style=&quot;text-align:center;margin-left:0;margin-right:0;margin-top:0px;margin-bottom:0px;text-indent:0;vertical-align:middle;direction:ltr;&quot;&gt;&lt;font style=&quot;font-size:12px;font-family:0;color:#000000;direction:ltr;letter-spacing:0px;line-height:120%;opacity:1&quot;&gt;SDKApplication&lt;/font&gt;&lt;/p&gt;&lt;/div&gt;" tags="Background" id="4p80e4eXdYzrRjhIBqF1-2">
          <mxCell style="verticalAlign=middle;align=center;overflow=width;vsdxID=2;fillColor=none;gradientColor=none;shape=stencil(UzV2Ls5ILEhVNTIoLinKz04tz0wpyVA1dlE1MsrMy0gtyiwBslSNXVWNndPyi1LTi/JL81Ig/IJEkEoQKze/DGRCBUSfqQFIi5FBJYRromcI5rtB1OZk5uFWa2hggKwW1VxUpQa4DYWZQoZSvI4lWymKA4AMRMhBAh1ZDj2UgUKQGDJ2BQA=);dashed=1;dashPattern=1.00 4.00;strokeColor=#000000;strokeWidth=2;spacingTop=-3;spacingBottom=-3;spacingLeft=-3;spacingRight=-3;points=[];labelBackgroundColor=none;rounded=0;html=1;whiteSpace=wrap;" vertex="1" parent="1">
            <mxGeometry x="346" y="19" width="125" height="731" as="geometry" />
          </mxCell>
        </UserObject>
        <UserObject label="&lt;div style=&quot;font-size: 1px&quot;&gt;&lt;p style=&quot;text-align:center;margin-left:0;margin-right:0;margin-top:0px;margin-bottom:0px;text-indent:0;vertical-align:middle;direction:ltr;&quot;&gt;&lt;font style=&quot;font-size:12px;font-family:0;color:#000000;direction:ltr;letter-spacing:0px;line-height:120%;opacity:1&quot;&gt;MaxAdHelper&lt;/font&gt;&lt;/p&gt;&lt;/div&gt;" tags="Background" id="4p80e4eXdYzrRjhIBqF1-3">
          <mxCell style="verticalAlign=middle;align=center;overflow=width;vsdxID=3;fillColor=none;gradientColor=none;shape=stencil(UzV2Ls5ILEhVNTIoLinKz04tz0wpyVA1dlE1MsrMy0gtyiwBslSNXVWNndPyi1LTi/JL81Ig/IJEkEoQKze/DGRCBUSfqQFIi5FBJYRromcI5rtB1OZk5uFWa2hggKwW1VxUpQa4DYWZQoZSvI4lWymKA4AMRMhBAh1ZDj2UgUKQGDJ2BQA=);dashed=1;dashPattern=1.00 4.00;strokeColor=#000000;strokeWidth=2;spacingTop=-3;spacingBottom=-3;spacingLeft=-3;spacingRight=-3;points=[];labelBackgroundColor=none;rounded=0;html=1;whiteSpace=wrap;" vertex="1" parent="1">
            <mxGeometry x="688" y="19" width="125" height="731" as="geometry" />
          </mxCell>
        </UserObject>
        <UserObject label="&lt;div style=&quot;font-size: 1px&quot;&gt;&lt;p style=&quot;text-align:center;margin-left:0;margin-right:0;margin-top:0px;margin-bottom:0px;text-indent:0;vertical-align:middle;direction:ltr;&quot;&gt;&lt;font style=&quot;font-size:12px;font-family:0;color:#000000;direction:ltr;letter-spacing:0px;line-height:120%;opacity:1&quot;&gt;AdUtil&lt;/font&gt;&lt;/p&gt;&lt;/div&gt;" tags="Background" id="4p80e4eXdYzrRjhIBqF1-4">
          <mxCell style="verticalAlign=middle;align=center;overflow=width;vsdxID=4;fillColor=none;gradientColor=none;shape=stencil(UzV2Ls5ILEhVNTIoLinKz04tz0wpyVA1dlE1MsrMy0gtyiwBslSNXVWNndPyi1LTi/JL81Ig/IJEkEoQKze/DGRCBUSfqQFIi5FBJYRromcI5rtB1OZk5uFWa2hggKwW1VxUpQa4DYWZQoZSvI4lWymKA4AMRMhBAh1ZDj2UgUKQGDJ2BQA=);dashed=1;dashPattern=1.00 4.00;strokeColor=#000000;strokeWidth=2;spacingTop=-3;spacingBottom=-3;spacingLeft=-3;spacingRight=-3;points=[];labelBackgroundColor=none;rounded=0;html=1;whiteSpace=wrap;" vertex="1" parent="1">
            <mxGeometry x="1102" y="19" width="125" height="731" as="geometry" />
          </mxCell>
        </UserObject>
        <UserObject label="" tags="Background" id="4p80e4eXdYzrRjhIBqF1-5">
          <mxCell style="vsdxID=5;fillColor=#FFFFFF;gradientColor=none;shape=stencil(lZJLEoIwDIZP022nJIq4RrwHMxTpiBQLKN5eahHayuCwy+NL/yQNwbgp0poTYE2r5JU/RdYWBE8EQFQFV6IdLIIJwTiXil+U7KrM+HWqSW3d5EO/0Js6piuAvYx3pHv4BM6GvXdpptnAhV23B+MGSBFHAmxifKwUlSUchTQ8OOJsRTlgf7SnPCxP4orP+Egzuou2yE+BbwP2OF5Pyx1Yy1rE11f/o++P7w/kqq//+hZ2MObTykVZmsu08/4pDiFzxpi8AQ==);strokeColor=#000000;strokeWidth=2;spacingTop=-3;spacingBottom=-3;spacingLeft=-3;spacingRight=-3;points=[];labelBackgroundColor=none;rounded=0;html=1;whiteSpace=wrap;" vertex="1" parent="1">
            <mxGeometry x="72" y="89" width="30" height="42" as="geometry" />
          </mxCell>
        </UserObject>
        <UserObject label="" tags="Background" id="4p80e4eXdYzrRjhIBqF1-6">
          <mxCell style="vsdxID=6;fillColor=#FFFFFF;gradientColor=none;shape=stencil(lZLdEoIgEIWfhlsG2DK9NnsPZ8RkMjF/yt4+aU1BHRvv9ux+cHZhCYR1FpeSCFY3lb7Jl0qajMCZCKGKTFaq6SMCEYEw1ZW8VrotEtRlbEgT3fXT3NDhOWZOCPZG5dMj/yYuyD7aODEsd2FXdgIlBwowEMImhstyVVjGvke9k2PONpw5++M91sX6JK75hKMOOD0Ee+zHxK8Be5xZT+sdWI+1im8//cJ/Nv5iINd9+9f3sH0wrVaq8hw3067PV7FP4RpD9AE=);strokeColor=#000000;strokeWidth=2;spacingTop=-3;spacingBottom=-3;spacingLeft=-3;spacingRight=-3;points=[];labelBackgroundColor=none;rounded=0;html=1;whiteSpace=wrap;" vertex="1" parent="1">
            <mxGeometry x="396" y="84" width="30" height="47" as="geometry" />
          </mxCell>
        </UserObject>
        <UserObject label="" tags="Background" id="4p80e4eXdYzrRjhIBqF1-7">
          <mxCell style="vsdxID=7;fillColor=#FFFFFF;gradientColor=none;shape=stencil(lZJLEoIwDIZP022nJIq4RrwHMxTpiBQLKN5eahHayuCwy+NL/yQNwbgp0poTYE2r5JU/RdYWBE8EQFQFV6IdLIIJwTiXil+U7KrM+HWqSW3d5EO/0Js6piuAvYx3pHv4BM6GvXdpptnAhV23B+MGSBFHAmxifKwUlSUchTQ8OOJsRTlgf7SnPCxP4orP+Egzuou2yE+BbwP2OF5Pyx1Yy1rE11f/o++P7w/kqq//+hZ2MObTykVZmsu08/4pDiFzxpi8AQ==);strokeColor=#000000;strokeWidth=2;spacingTop=-3;spacingBottom=-3;spacingLeft=-3;spacingRight=-3;points=[];labelBackgroundColor=none;rounded=0;html=1;whiteSpace=wrap;" vertex="1" parent="1">
            <mxGeometry x="739" y="84" width="30" height="42" as="geometry" />
          </mxCell>
        </UserObject>
        <UserObject label="" tags="Background" id="4p80e4eXdYzrRjhIBqF1-8">
          <mxCell style="vsdxID=8;fillColor=#FFFFFF;gradientColor=none;shape=stencil(lZLRDoMgDEW/hlcCNFH37Nx/mIiTzIljurm/n6xOgRkX33rLLaeFEkjvVd5KIti9M/oin6roKgJHIoRqKmlUN0YEMgJpqY08G903Beo2t04bXfXD3jBgHbMVgr1QJTT+6BNab31eWCv3vb4cBEoOFGByCNcxXVarxuEmEY1ij802yJz9Yc/nYnUQn724UR84hT3wOfHFu8MEHa034DzVqn374X/4wfDhPD5888d3WMdgWapS1TXupHseLuGYwgWG7A0=);strokeColor=#000000;strokeWidth=2;spacingTop=-3;spacingBottom=-3;spacingLeft=-3;spacingRight=-3;points=[];labelBackgroundColor=none;rounded=0;html=1;whiteSpace=wrap;" vertex="1" parent="1">
            <mxGeometry x="739" y="173" width="30" height="46" as="geometry" />
          </mxCell>
        </UserObject>
        <UserObject label="" tags="Background" id="4p80e4eXdYzrRjhIBqF1-9">
          <mxCell style="vsdxID=9;fillColor=#FFFFFF;gradientColor=none;shape=stencil(lZLRDoMgDEW/hlcCNFH37Nx/mIiTzIljurm/n6xOgRkX33rLLaeFEkjvVd5KIti9M/oin6roKgJHIoRqKmlUN0YEMgJpqY08G903Beo2t04bXfXD3jBgHbMVgr1QJTT+6BNab31eWCv3vb4cBEoOFGByCNcxXVarxuEmEY1ij802yJz9Yc/nYnUQn724UR84hT3wOfHFu8MEHa034DzVqn374X/4wfDhPD5888d3WMdgWapS1TXupHseLuGYwgWG7A0=);strokeColor=#000000;strokeWidth=2;spacingTop=-3;spacingBottom=-3;spacingLeft=-3;spacingRight=-3;points=[];labelBackgroundColor=none;rounded=0;html=1;whiteSpace=wrap;" vertex="1" parent="1">
            <mxGeometry x="739" y="266" width="30" height="46" as="geometry" />
          </mxCell>
        </UserObject>
        <UserObject label="" tags="Background" id="4p80e4eXdYzrRjhIBqF1-10">
          <mxCell style="vsdxID=10;fillColor=#FFFFFF;gradientColor=none;shape=stencil(lZLRDoMgDEW/hlcCNFH37Nx/mIiTzIljurm/n6xOgRkX33rLLaeFEkjvVd5KIti9M/oin6roKgJHIoRqKmlUN0YEMgJpqY08G903Beo2t04bXfXD3jBgHbMVgr1QJTT+6BNab31eWCv3vb4cBEoOFGByCNcxXVarxuEmEY1ij802yJz9Yc/nYnUQn724UR84hT3wOfHFu8MEHa034DzVqn374X/4wfDhPD5888d3WMdgWapS1TXupHseLuGYwgWG7A0=);strokeColor=#000000;strokeWidth=2;spacingTop=-3;spacingBottom=-3;spacingLeft=-3;spacingRight=-3;points=[];labelBackgroundColor=none;rounded=0;html=1;whiteSpace=wrap;" vertex="1" parent="1">
            <mxGeometry x="739" y="370" width="30" height="46" as="geometry" />
          </mxCell>
        </UserObject>
        <UserObject label="" tags="Background" id="4p80e4eXdYzrRjhIBqF1-11">
          <mxCell style="vsdxID=11;fillColor=#FFFFFF;gradientColor=none;shape=stencil(lZLRDoMgDEW/hlcCNFH37Nx/mIiTzIljurm/n6xOgRkX33rLLaeFEkjvVd5KIti9M/oin6roKgJHIoRqKmlUN0YEMgJpqY08G903Beo2t04bXfXD3jBgHbMVgr1QJTT+6BNab31eWCv3vb4cBEoOFGByCNcxXVarxuEmEY1ij802yJz9Yc/nYnUQn724UR84hT3wOfHFu8MEHa034DzVqn374X/4wfDhPD5888d3WMdgWapS1TXupHseLuGYwgWG7A0=);strokeColor=#000000;strokeWidth=2;spacingTop=-3;spacingBottom=-3;spacingLeft=-3;spacingRight=-3;points=[];labelBackgroundColor=none;rounded=0;html=1;whiteSpace=wrap;" vertex="1" parent="1">
            <mxGeometry x="739" y="468" width="30" height="46" as="geometry" />
          </mxCell>
        </UserObject>
        <UserObject label="" tags="Background" id="4p80e4eXdYzrRjhIBqF1-12">
          <mxCell style="vsdxID=12;fillColor=#FFFFFF;gradientColor=none;shape=stencil(lZLRDoMgDEW/hlcCNFH37Nx/mIiTzIljurm/n6xOgRkX33rLLaeFEkjvVd5KIti9M/oin6roKgJHIoRqKmlUN0YEMgJpqY08G903Beo2t04bXfXD3jBgHbMVgr1QJTT+6BNab31eWCv3vb4cBEoOFGByCNcxXVarxuEmEY1ij802yJz9Yc/nYnUQn724UR84hT3wOfHFu8MEHa034DzVqn374X/4wfDhPD5888d3WMdgWapS1TXupHseLuGYwgWG7A0=);strokeColor=#000000;strokeWidth=2;spacingTop=-3;spacingBottom=-3;spacingLeft=-3;spacingRight=-3;points=[];labelBackgroundColor=none;rounded=0;html=1;whiteSpace=wrap;" vertex="1" parent="1">
            <mxGeometry x="739" y="575" width="30" height="46" as="geometry" />
          </mxCell>
        </UserObject>
        <UserObject label="" tags="Background" id="4p80e4eXdYzrRjhIBqF1-13">
          <mxCell style="vsdxID=13;fillColor=#FFFFFF;gradientColor=none;shape=stencil(lZLRDoMgDEW/hlcCNFH37Nx/mIiTzIljurm/n6xOgRkX33rLLaeFEkjvVd5KIti9M/oin6roKgJHIoRqKmlUN0YEMgJpqY08G903Beo2t04bXfXD3jBgHbMVgr1QJTT+6BNab31eWCv3vb4cBEoOFGByCNcxXVarxuEmEY1ij802yJz9Yc/nYnUQn724UR84hT3wOfHFu8MEHa034DzVqn374X/4wfDhPD5888d3WMdgWapS1TXupHseLuGYwgWG7A0=);strokeColor=#000000;strokeWidth=2;spacingTop=-3;spacingBottom=-3;spacingLeft=-3;spacingRight=-3;points=[];labelBackgroundColor=none;rounded=0;html=1;whiteSpace=wrap;" vertex="1" parent="1">
            <mxGeometry x="396" y="173" width="30" height="46" as="geometry" />
          </mxCell>
        </UserObject>
        <UserObject label="" tags="Background" id="4p80e4eXdYzrRjhIBqF1-14">
          <mxCell style="vsdxID=14;fillColor=#FFFFFF;gradientColor=none;shape=stencil(lZLRDoMgDEW/hlcCNFH37Nx/mIiTzIljurm/n6xOgRkX33rLLaeFEkjvVd5KIti9M/oin6roKgJHIoRqKmlUN0YEMgJpqY08G903Beo2t04bXfXD3jBgHbMVgr1QJTT+6BNab31eWCv3vb4cBEoOFGByCNcxXVarxuEmEY1ij802yJz9Yc/nYnUQn724UR84hT3wOfHFu8MEHa034DzVqn374X/4wfDhPD5888d3WMdgWapS1TXupHseLuGYwgWG7A0=);strokeColor=#000000;strokeWidth=2;spacingTop=-3;spacingBottom=-3;spacingLeft=-3;spacingRight=-3;points=[];labelBackgroundColor=none;rounded=0;html=1;whiteSpace=wrap;" vertex="1" parent="1">
            <mxGeometry x="396" y="266" width="30" height="46" as="geometry" />
          </mxCell>
        </UserObject>
        <UserObject label="" tags="Background" id="4p80e4eXdYzrRjhIBqF1-15">
          <mxCell style="vsdxID=15;fillColor=#FFFFFF;gradientColor=none;shape=stencil(lZLRDoMgDEW/hlcCNFH37Nx/mIiTzIljurm/n6xOgRkX33rLLaeFEkjvVd5KIti9M/oin6roKgJHIoRqKmlUN0YEMgJpqY08G903Beo2t04bXfXD3jBgHbMVgr1QJTT+6BNab31eWCv3vb4cBEoOFGByCNcxXVarxuEmEY1ij802yJz9Yc/nYnUQn724UR84hT3wOfHFu8MEHa034DzVqn374X/4wfDhPD5888d3WMdgWapS1TXupHseLuGYwgWG7A0=);strokeColor=#000000;strokeWidth=2;spacingTop=-3;spacingBottom=-3;spacingLeft=-3;spacingRight=-3;points=[];labelBackgroundColor=none;rounded=0;html=1;whiteSpace=wrap;" vertex="1" parent="1">
            <mxGeometry x="396" y="370" width="30" height="46" as="geometry" />
          </mxCell>
        </UserObject>
        <UserObject label="" tags="Background" id="4p80e4eXdYzrRjhIBqF1-16">
          <mxCell style="vsdxID=16;fillColor=#FFFFFF;gradientColor=none;shape=stencil(lZLRDoMgDEW/hlcCNFH37Nx/mIiTzIljurm/n6xOgRkX33rLLaeFEkjvVd5KIti9M/oin6roKgJHIoRqKmlUN0YEMgJpqY08G903Beo2t04bXfXD3jBgHbMVgr1QJTT+6BNab31eWCv3vb4cBEoOFGByCNcxXVarxuEmEY1ij802yJz9Yc/nYnUQn724UR84hT3wOfHFu8MEHa034DzVqn374X/4wfDhPD5888d3WMdgWapS1TXupHseLuGYwgWG7A0=);strokeColor=#000000;strokeWidth=2;spacingTop=-3;spacingBottom=-3;spacingLeft=-3;spacingRight=-3;points=[];labelBackgroundColor=none;rounded=0;html=1;whiteSpace=wrap;" vertex="1" parent="1">
            <mxGeometry x="396" y="468" width="30" height="46" as="geometry" />
          </mxCell>
        </UserObject>
        <UserObject label="" tags="Background" id="4p80e4eXdYzrRjhIBqF1-17">
          <mxCell style="vsdxID=17;fillColor=#FFFFFF;gradientColor=none;shape=stencil(lZLRDoMgDEW/hlcCNFH37Nx/mIiTzIljurm/n6xOgRkX33rLLaeFEkjvVd5KIti9M/oin6roKgJHIoRqKmlUN0YEMgJpqY08G903Beo2t04bXfXD3jBgHbMVgr1QJTT+6BNab31eWCv3vb4cBEoOFGByCNcxXVarxuEmEY1ij802yJz9Yc/nYnUQn724UR84hT3wOfHFu8MEHa034DzVqn374X/4wfDhPD5888d3WMdgWapS1TXupHseLuGYwgWG7A0=);strokeColor=#000000;strokeWidth=2;spacingTop=-3;spacingBottom=-3;spacingLeft=-3;spacingRight=-3;points=[];labelBackgroundColor=none;rounded=0;html=1;whiteSpace=wrap;" vertex="1" parent="1">
            <mxGeometry x="396" y="575" width="30" height="46" as="geometry" />
          </mxCell>
        </UserObject>
        <UserObject label="" tags="Background" id="4p80e4eXdYzrRjhIBqF1-18">
          <mxCell style="vsdxID=18;fillColor=#FFFFFF;gradientColor=none;shape=stencil(lZLRDoMgDEW/hlcCNFH37Nx/mIiTzIljurm/n6xOgRkX33rLLaeFEkjvVd5KIti9M/oin6roKgJHIoRqKmlUN0YEMgJpqY08G903Beo2t04bXfXD3jBgHbMVgr1QJTT+6BNab31eWCv3vb4cBEoOFGByCNcxXVarxuEmEY1ij802yJz9Yc/nYnUQn724UR84hT3wOfHFu8MEHa034DzVqn374X/4wfDhPD5888d3WMdgWapS1TXupHseLuGYwgWG7A0=);strokeColor=#000000;strokeWidth=2;spacingTop=-3;spacingBottom=-3;spacingLeft=-3;spacingRight=-3;points=[];labelBackgroundColor=none;rounded=0;html=1;whiteSpace=wrap;" vertex="1" parent="1">
            <mxGeometry x="1149" y="173" width="30" height="46" as="geometry" />
          </mxCell>
        </UserObject>
        <UserObject label="" tags="Background" id="4p80e4eXdYzrRjhIBqF1-19">
          <mxCell style="vsdxID=19;fillColor=#FFFFFF;gradientColor=none;shape=stencil(lZLRDoMgDEW/hlcCNFH37Nx/mIiTzIljurm/n6xOgRkX33rLLaeFEkjvVd5KIti9M/oin6roKgJHIoRqKmlUN0YEMgJpqY08G903Beo2t04bXfXD3jBgHbMVgr1QJTT+6BNab31eWCv3vb4cBEoOFGByCNcxXVarxuEmEY1ij802yJz9Yc/nYnUQn724UR84hT3wOfHFu8MEHa034DzVqn374X/4wfDhPD5888d3WMdgWapS1TXupHseLuGYwgWG7A0=);strokeColor=#000000;strokeWidth=2;spacingTop=-3;spacingBottom=-3;spacingLeft=-3;spacingRight=-3;points=[];labelBackgroundColor=none;rounded=0;html=1;whiteSpace=wrap;" vertex="1" parent="1">
            <mxGeometry x="1149" y="266" width="30" height="46" as="geometry" />
          </mxCell>
        </UserObject>
        <UserObject label="" tags="Background" id="4p80e4eXdYzrRjhIBqF1-20">
          <mxCell style="vsdxID=20;fillColor=#FFFFFF;gradientColor=none;shape=stencil(lZLRDoMgDEW/hlcCNFH37Nx/mIiTzIljurm/n6xOgRkX33rLLaeFEkjvVd5KIti9M/oin6roKgJHIoRqKmlUN0YEMgJpqY08G903Beo2t04bXfXD3jBgHbMVgr1QJTT+6BNab31eWCv3vb4cBEoOFGByCNcxXVarxuEmEY1ij802yJz9Yc/nYnUQn724UR84hT3wOfHFu8MEHa034DzVqn374X/4wfDhPD5888d3WMdgWapS1TXupHseLuGYwgWG7A0=);strokeColor=#000000;strokeWidth=2;spacingTop=-3;spacingBottom=-3;spacingLeft=-3;spacingRight=-3;points=[];labelBackgroundColor=none;rounded=0;html=1;whiteSpace=wrap;" vertex="1" parent="1">
            <mxGeometry x="1149" y="370" width="30" height="46" as="geometry" />
          </mxCell>
        </UserObject>
        <UserObject label="" tags="Background" id="4p80e4eXdYzrRjhIBqF1-21">
          <mxCell style="vsdxID=21;fillColor=#FFFFFF;gradientColor=none;shape=stencil(lZLRDoMgDEW/hlcCNFH37Nx/mIiTzIljurm/n6xOgRkX33rLLaeFEkjvVd5KIti9M/oin6roKgJHIoRqKmlUN0YEMgJpqY08G903Beo2t04bXfXD3jBgHbMVgr1QJTT+6BNab31eWCv3vb4cBEoOFGByCNcxXVarxuEmEY1ij802yJz9Yc/nYnUQn724UR84hT3wOfHFu8MEHa034DzVqn374X/4wfDhPD5888d3WMdgWapS1TXupHseLuGYwgWG7A0=);strokeColor=#000000;strokeWidth=2;spacingTop=-3;spacingBottom=-3;spacingLeft=-3;spacingRight=-3;points=[];labelBackgroundColor=none;rounded=0;html=1;whiteSpace=wrap;" vertex="1" parent="1">
            <mxGeometry x="1149" y="468" width="30" height="46" as="geometry" />
          </mxCell>
        </UserObject>
        <UserObject label="" tags="Background" id="4p80e4eXdYzrRjhIBqF1-22">
          <mxCell style="vsdxID=22;fillColor=#FFFFFF;gradientColor=none;shape=stencil(lZLRDoMgDEW/hlcCNFH37Nx/mIiTzIljurm/n6xOgRkX33rLLaeFEkjvVd5KIti9M/oin6roKgJHIoRqKmlUN0YEMgJpqY08G903Beo2t04bXfXD3jBgHbMVgr1QJTT+6BNab31eWCv3vb4cBEoOFGByCNcxXVarxuEmEY1ij802yJz9Yc/nYnUQn724UR84hT3wOfHFu8MEHa034DzVqn374X/4wfDhPD5888d3WMdgWapS1TXupHseLuGYwgWG7A0=);strokeColor=#000000;strokeWidth=2;spacingTop=-3;spacingBottom=-3;spacingLeft=-3;spacingRight=-3;points=[];labelBackgroundColor=none;rounded=0;html=1;whiteSpace=wrap;" vertex="1" parent="1">
            <mxGeometry x="1149" y="575" width="30" height="46" as="geometry" />
          </mxCell>
        </UserObject>
        <UserObject label="" tags="Background" id="4p80e4eXdYzrRjhIBqF1-23">
          <mxCell style="vsdxID=23;fillColor=#FFFFFF;gradientColor=none;shape=stencil(lZLREoIgEEW/hlcGd03r2ew/nBGTycRQy/4+CVNQx8a3vbsH7i4swajOk4oTYHWj5I2/RNrkBM8EQJQ5V6LpI4IxwSiTil+VbMvU6CrRpI7u8qlv6Mw5pk8Aext1oBB8ExfDPtok1aznwq7swEgPKeJAgE0MlxWitIyPAQ1Cx5xtOHvsj/dYh/VJXPMJN/rk09DfYz8mfg3Y48x6Wu/AeqxVfPvpF/6z8RcDue7bv76H7YNptTJRFGYz7fp8FfuUWWOMPw==);strokeColor=#000000;strokeWidth=2;spacingTop=-3;spacingBottom=-3;spacingLeft=-3;spacingRight=-3;points=[];labelBackgroundColor=none;rounded=0;html=1;whiteSpace=wrap;" vertex="1" parent="1">
            <mxGeometry x="391" y="683" width="30" height="76" as="geometry" />
          </mxCell>
        </UserObject>
        <UserObject label="&lt;div style=&quot;font-size: 1px&quot;&gt;&lt;p style=&quot;text-align:center;margin-left:0;margin-right:0;margin-top:0px;margin-bottom:0px;text-indent:0;vertical-align:middle;direction:ltr;&quot;&gt;&lt;font style=&quot;font-size:12px;font-family:0;color:#000000;direction:ltr;letter-spacing:0px;line-height:120%;opacity:1&quot;&gt;onAdInterrupt&lt;/font&gt;&lt;/p&gt;&lt;/div&gt;" tags="Background" id="4p80e4eXdYzrRjhIBqF1-24">
          <mxCell style="vsdxID=24;edgeStyle=none;startArrow=none;endArrow=block;startSize=5;endSize=5;strokeWidth=2;spacingTop=0;spacingBottom=0;spacingLeft=0;spacingRight=0;verticalAlign=middle;html=1;labelBackgroundColor=#ffffff;rounded=0;align=center;exitX=0;exitY=0.5;exitDx=0;exitDy=0;exitPerimeter=0;entryX=0;entryY=0.5;entryDx=0;entryDy=0;entryPerimeter=0;" edge="1" parent="1" source="4p80e4eXdYzrRjhIBqF1-17" target="4p80e4eXdYzrRjhIBqF1-22">
            <mxGeometry relative="1" as="geometry">
              <mxPoint x="184" y="-1" as="offset" />
              <Array as="points">
                <mxPoint x="365.9" y="598" />
                <mxPoint x="365.9" y="651" />
                <mxPoint x="1118.4" y="651" />
                <mxPoint x="1118.4" y="598" />
              </Array>
            </mxGeometry>
          </mxCell>
        </UserObject>
        <UserObject label="" tags="Background" id="4p80e4eXdYzrRjhIBqF1-25">
          <mxCell style="vsdxID=25;edgeStyle=none;startArrow=none;endArrow=block;startSize=5;endSize=5;strokeWidth=2;spacingTop=0;spacingBottom=0;spacingLeft=0;spacingRight=0;verticalAlign=middle;html=1;labelBackgroundColor=#ffffff;rounded=0;exitX=1;exitY=0.5;exitDx=0;exitDy=0;exitPerimeter=0;entryX=1;entryY=0.5;entryDx=0;entryDy=0;entryPerimeter=0;" edge="1" parent="1" source="4p80e4eXdYzrRjhIBqF1-20" target="4p80e4eXdYzrRjhIBqF1-23">
            <mxGeometry relative="1" as="geometry">
              <mxPoint x="184" y="101" as="offset" />
              <Array as="points">
                <mxPoint x="1209.3" y="393" />
                <mxPoint x="1209.3" y="720.5" />
              </Array>
            </mxGeometry>
          </mxCell>
        </UserObject>
        <UserObject label="&lt;div style=&quot;font-size: 1px&quot;&gt;&lt;p style=&quot;text-align:center;margin-left:0;margin-right:0;margin-top:0px;margin-bottom:0px;text-indent:0;vertical-align:middle;direction:ltr;&quot;&gt;&lt;font style=&quot;font-size:12px;font-family:0;color:#000000;direction:ltr;letter-spacing:0px;line-height:120%;opacity:1&quot;&gt;onUserRewarded&lt;/font&gt;&lt;/p&gt;&lt;/div&gt;" tags="Background" id="4p80e4eXdYzrRjhIBqF1-26">
          <mxCell style="vsdxID=26;edgeStyle=none;startArrow=none;endArrow=block;startSize=5;endSize=5;strokeWidth=2;spacingTop=0;spacingBottom=0;spacingLeft=0;spacingRight=0;verticalAlign=middle;html=1;labelBackgroundColor=#ffffff;rounded=0;align=center;exitX=0;exitY=0.5;exitDx=0;exitDy=0;exitPerimeter=0;entryX=1;entryY=0.5;entryDx=0;entryDy=0;entryPerimeter=0;" edge="1" parent="1" source="4p80e4eXdYzrRjhIBqF1-8" target="4p80e4eXdYzrRjhIBqF1-13">
            <mxGeometry relative="1" as="geometry">
              <mxPoint x="-1" y="-1" as="offset" />
              <Array as="points">
                <mxPoint x="582.75" y="196" />
                <mxPoint x="582.75" y="196" />
              </Array>
            </mxGeometry>
          </mxCell>
        </UserObject>
        <UserObject label="&lt;div style=&quot;font-size: 1px&quot;&gt;&lt;p style=&quot;text-align:center;margin-left:0;margin-right:0;margin-top:0px;margin-bottom:0px;text-indent:0;vertical-align:middle;direction:ltr;&quot;&gt;&lt;font style=&quot;font-size:12px;font-family:0;color:#000000;direction:ltr;letter-spacing:0px;line-height:120%;opacity:1&quot;&gt;onLoadReady&lt;/font&gt;&lt;/p&gt;&lt;/div&gt;" tags="Background" id="4p80e4eXdYzrRjhIBqF1-27">
          <mxCell style="vsdxID=27;edgeStyle=none;startArrow=none;endArrow=block;startSize=5;endSize=5;strokeWidth=2;spacingTop=0;spacingBottom=0;spacingLeft=0;spacingRight=0;verticalAlign=middle;html=1;labelBackgroundColor=#ffffff;rounded=0;align=center;exitX=0;exitY=0.5;exitDx=0;exitDy=0;exitPerimeter=0;entryX=0;entryY=0.5;entryDx=0;entryDy=0;entryPerimeter=0;" edge="1" parent="1" source="4p80e4eXdYzrRjhIBqF1-14" target="4p80e4eXdYzrRjhIBqF1-19">
            <mxGeometry relative="1" as="geometry">
              <mxPoint x="117" y="-1" as="offset" />
              <Array as="points">
                <mxPoint x="365.9" y="289" />
                <mxPoint x="365.9" y="342" />
                <mxPoint x="1118.4" y="342" />
                <mxPoint x="1118.4" y="289" />
              </Array>
            </mxGeometry>
          </mxCell>
        </UserObject>
        <UserObject label="&lt;div style=&quot;font-size: 1px&quot;&gt;&lt;p style=&quot;text-align:center;margin-left:0;margin-right:0;margin-top:0px;margin-bottom:0px;text-indent:0;vertical-align:middle;direction:ltr;&quot;&gt;&lt;font style=&quot;font-size:12px;font-family:0;color:#000000;direction:ltr;letter-spacing:0px;line-height:120%;opacity:1&quot;&gt;onAdClose&lt;/font&gt;&lt;/p&gt;&lt;/div&gt;" tags="Background" id="4p80e4eXdYzrRjhIBqF1-28">
          <mxCell style="vsdxID=28;edgeStyle=none;startArrow=none;endArrow=block;startSize=5;endSize=5;strokeWidth=2;spacingTop=0;spacingBottom=0;spacingLeft=0;spacingRight=0;verticalAlign=middle;html=1;labelBackgroundColor=#ffffff;rounded=0;align=center;exitX=0;exitY=0.5;exitDx=0;exitDy=0;exitPerimeter=0;entryX=0;entryY=0.5;entryDx=0;entryDy=0;entryPerimeter=0;" edge="1" parent="1" source="4p80e4eXdYzrRjhIBqF1-15" target="4p80e4eXdYzrRjhIBqF1-20">
            <mxGeometry relative="1" as="geometry">
              <mxPoint x="184" y="-1" as="offset" />
              <Array as="points">
                <mxPoint x="365.9" y="393" />
                <mxPoint x="365.9" y="446" />
                <mxPoint x="1118.4" y="446" />
                <mxPoint x="1118.4" y="393" />
              </Array>
            </mxGeometry>
          </mxCell>
        </UserObject>
        <UserObject label="&lt;div style=&quot;font-size: 1px&quot;&gt;&lt;p style=&quot;text-align:center;margin-left:0;margin-right:0;margin-top:0px;margin-bottom:0px;text-indent:0;vertical-align:middle;direction:ltr;&quot;&gt;&lt;font style=&quot;font-size:12px;font-family:0;color:#000000;direction:ltr;letter-spacing:0px;line-height:120%;opacity:1&quot;&gt;initializeSdk&lt;/font&gt;&lt;/p&gt;&lt;/div&gt;" tags="Background" id="4p80e4eXdYzrRjhIBqF1-29">
          <mxCell style="vsdxID=29;edgeStyle=none;startArrow=none;endArrow=block;startSize=5;endSize=5;strokeWidth=2;spacingTop=0;spacingBottom=0;spacingLeft=0;spacingRight=0;verticalAlign=middle;html=1;labelBackgroundColor=#ffffff;rounded=0;align=center;exitX=1;exitY=0.5;exitDx=0;exitDy=0;exitPerimeter=0;entryX=0;entryY=0.5531914893617021;entryDx=0;entryDy=0;entryPerimeter=0;" edge="1" parent="1" source="4p80e4eXdYzrRjhIBqF1-5" target="4p80e4eXdYzrRjhIBqF1-6">
            <mxGeometry relative="1" as="geometry">
              <mxPoint x="-37" y="-1" as="offset" />
              <Array as="points">
                <mxPoint x="249.25" y="110" />
                <mxPoint x="249.25" y="110" />
              </Array>
            </mxGeometry>
          </mxCell>
        </UserObject>
        <UserObject label="&lt;div style=&quot;font-size: 1px&quot;&gt;&lt;p style=&quot;text-align:center;margin-left:0;margin-right:0;margin-top:0px;margin-bottom:0px;text-indent:0;vertical-align:middle;direction:ltr;&quot;&gt;&lt;font style=&quot;font-size:12px;font-family:0;color:#000000;direction:ltr;letter-spacing:0px;line-height:120%;opacity:1&quot;&gt;onAdLoaded&lt;/font&gt;&lt;/p&gt;&lt;/div&gt;" tags="Background" id="4p80e4eXdYzrRjhIBqF1-30">
          <mxCell style="vsdxID=30;edgeStyle=none;startArrow=none;endArrow=block;startSize=5;endSize=5;strokeWidth=2;spacingTop=0;spacingBottom=0;spacingLeft=0;spacingRight=0;verticalAlign=middle;html=1;labelBackgroundColor=#ffffff;rounded=0;align=center;exitX=0;exitY=0.5;exitDx=0;exitDy=0;exitPerimeter=0;entryX=1;entryY=0.5;entryDx=0;entryDy=0;entryPerimeter=0;" edge="1" parent="1" source="4p80e4eXdYzrRjhIBqF1-9" target="4p80e4eXdYzrRjhIBqF1-14">
            <mxGeometry relative="1" as="geometry">
              <mxPoint x="-9" y="-1" as="offset" />
              <Array as="points">
                <mxPoint x="582.75" y="289" />
                <mxPoint x="582.75" y="289" />
              </Array>
            </mxGeometry>
          </mxCell>
        </UserObject>
        <UserObject label="&lt;div style=&quot;font-size: 1px&quot;&gt;&lt;p style=&quot;text-align:center;margin-left:0;margin-right:0;margin-top:0px;margin-bottom:0px;text-indent:0;vertical-align:middle;direction:ltr;&quot;&gt;&lt;font style=&quot;font-size:12px;font-family:0;color:#000000;direction:ltr;letter-spacing:0px;line-height:120%;opacity:1&quot;&gt;onAdLoadFailed&lt;/font&gt;&lt;/p&gt;&lt;/div&gt;" tags="Background" id="4p80e4eXdYzrRjhIBqF1-31">
          <mxCell style="vsdxID=31;edgeStyle=none;startArrow=none;endArrow=block;startSize=5;endSize=5;strokeWidth=2;spacingTop=0;spacingBottom=0;spacingLeft=0;spacingRight=0;verticalAlign=middle;html=1;labelBackgroundColor=#ffffff;rounded=0;align=center;exitX=0;exitY=0.5;exitDx=0;exitDy=0;exitPerimeter=0;entryX=1;entryY=0.5;entryDx=0;entryDy=0;entryPerimeter=0;" edge="1" parent="1" source="4p80e4eXdYzrRjhIBqF1-11" target="4p80e4eXdYzrRjhIBqF1-16">
            <mxGeometry relative="1" as="geometry">
              <mxPoint x="-10" y="-1" as="offset" />
              <Array as="points">
                <mxPoint x="582.75" y="491" />
                <mxPoint x="582.75" y="491" />
              </Array>
            </mxGeometry>
          </mxCell>
        </UserObject>
        <UserObject label="&lt;div style=&quot;font-size: 1px&quot;&gt;&lt;p style=&quot;text-align:center;margin-left:0;margin-right:0;margin-top:0px;margin-bottom:0px;text-indent:0;vertical-align:middle;direction:ltr;&quot;&gt;&lt;font style=&quot;font-size:12px;font-family:0;color:#000000;direction:ltr;letter-spacing:0px;line-height:120%;opacity:1&quot;&gt;loadRewardAd&lt;/font&gt;&lt;/p&gt;&lt;/div&gt;" tags="Background" id="4p80e4eXdYzrRjhIBqF1-32">
          <mxCell style="vsdxID=32;edgeStyle=none;startArrow=none;endArrow=block;startSize=5;endSize=5;strokeWidth=2;spacingTop=0;spacingBottom=0;spacingLeft=0;spacingRight=0;verticalAlign=middle;html=1;labelBackgroundColor=#ffffff;rounded=0;align=center;exitX=0;exitY=0.5;exitDx=0;exitDy=0;exitPerimeter=0;entryX=0;entryY=0.881578947368421;entryDx=0;entryDy=0;entryPerimeter=0;" edge="1" parent="1" source="4p80e4eXdYzrRjhIBqF1-23" target="4p80e4eXdYzrRjhIBqF1-23">
            <mxGeometry relative="1" as="geometry">
              <mxPoint x="15" y="-15" as="offset" />
              <Array as="points">
                <mxPoint x="361" y="721" />
                <mxPoint x="361" y="750.97" />
              </Array>
            </mxGeometry>
          </mxCell>
        </UserObject>
        <UserObject label="&lt;div style=&quot;font-size: 1px&quot;&gt;&lt;p style=&quot;text-align:center;margin-left:0;margin-right:0;margin-top:0px;margin-bottom:0px;text-indent:0;vertical-align:middle;direction:ltr;&quot;&gt;&lt;font style=&quot;font-size:12px;font-family:0;color:#000000;direction:ltr;letter-spacing:0px;line-height:120%;opacity:1&quot;&gt;onRewardOk&lt;/font&gt;&lt;/p&gt;&lt;/div&gt;" tags="Background" id="4p80e4eXdYzrRjhIBqF1-33">
          <mxCell style="vsdxID=33;edgeStyle=none;startArrow=none;endArrow=block;startSize=5;endSize=5;strokeWidth=2;spacingTop=0;spacingBottom=0;spacingLeft=0;spacingRight=0;verticalAlign=middle;html=1;labelBackgroundColor=#ffffff;rounded=0;align=center;exitX=0;exitY=0.5;exitDx=0;exitDy=0;exitPerimeter=0;entryX=0;entryY=0.5;entryDx=0;entryDy=0;entryPerimeter=0;" edge="1" parent="1" source="4p80e4eXdYzrRjhIBqF1-13" target="4p80e4eXdYzrRjhIBqF1-18">
            <mxGeometry relative="1" as="geometry">
              <mxPoint x="69" y="-1" as="offset" />
              <Array as="points">
                <mxPoint x="365.9" y="196" />
                <mxPoint x="365.9" y="249" />
                <mxPoint x="1118.4" y="249" />
                <mxPoint x="1118.4" y="196" />
              </Array>
            </mxGeometry>
          </mxCell>
        </UserObject>
        <UserObject label="&lt;div style=&quot;font-size: 1px&quot;&gt;&lt;p style=&quot;text-align:center;margin-left:0;margin-right:0;margin-top:0px;margin-bottom:0px;text-indent:0;vertical-align:middle;direction:ltr;&quot;&gt;&lt;font style=&quot;font-size:12px;font-family:0;color:#000000;direction:ltr;letter-spacing:0px;line-height:120%;opacity:1&quot;&gt;onAdDisplayFailed&lt;/font&gt;&lt;/p&gt;&lt;/div&gt;" tags="Background" id="4p80e4eXdYzrRjhIBqF1-34">
          <mxCell style="vsdxID=34;edgeStyle=none;startArrow=none;endArrow=block;startSize=5;endSize=5;strokeWidth=2;spacingTop=0;spacingBottom=0;spacingLeft=0;spacingRight=0;verticalAlign=middle;html=1;labelBackgroundColor=#ffffff;rounded=0;align=center;exitX=0;exitY=0.5;exitDx=0;exitDy=0;exitPerimeter=0;entryX=1;entryY=0.5;entryDx=0;entryDy=0;entryPerimeter=0;" edge="1" parent="1" source="4p80e4eXdYzrRjhIBqF1-12" target="4p80e4eXdYzrRjhIBqF1-17">
            <mxGeometry relative="1" as="geometry">
              <mxPoint x="-10" y="-1" as="offset" />
              <Array as="points">
                <mxPoint x="582.75" y="598" />
                <mxPoint x="582.75" y="598" />
              </Array>
            </mxGeometry>
          </mxCell>
        </UserObject>
        <UserObject label="&lt;div style=&quot;font-size: 1px&quot;&gt;&lt;p style=&quot;text-align:center;margin-left:0;margin-right:0;margin-top:0px;margin-bottom:0px;text-indent:0;vertical-align:middle;direction:ltr;&quot;&gt;&lt;font style=&quot;font-size:12px;font-family:0;color:#000000;direction:ltr;letter-spacing:0px;line-height:120%;opacity:1&quot;&gt;onAdHidden&lt;/font&gt;&lt;/p&gt;&lt;/div&gt;" tags="Background" id="4p80e4eXdYzrRjhIBqF1-35">
          <mxCell style="vsdxID=35;edgeStyle=none;startArrow=none;endArrow=block;startSize=5;endSize=5;strokeWidth=2;spacingTop=0;spacingBottom=0;spacingLeft=0;spacingRight=0;verticalAlign=middle;html=1;labelBackgroundColor=#ffffff;rounded=0;align=center;exitX=0;exitY=0.5;exitDx=0;exitDy=0;exitPerimeter=0;entryX=1;entryY=0.5;entryDx=0;entryDy=0;entryPerimeter=0;" edge="1" parent="1" source="4p80e4eXdYzrRjhIBqF1-10" target="4p80e4eXdYzrRjhIBqF1-15">
            <mxGeometry relative="1" as="geometry">
              <mxPoint x="-12" y="-1" as="offset" />
              <Array as="points">
                <mxPoint x="582.75" y="393" />
                <mxPoint x="582.75" y="393" />
              </Array>
            </mxGeometry>
          </mxCell>
        </UserObject>
        <UserObject label="&lt;div style=&quot;font-size: 1px&quot;&gt;&lt;p style=&quot;text-align:center;margin-left:0;margin-right:0;margin-top:0px;margin-bottom:0px;text-indent:0;vertical-align:middle;direction:ltr;&quot;&gt;&lt;font style=&quot;font-size:12px;font-family:0;color:#000000;direction:ltr;letter-spacing:0px;line-height:120%;opacity:1&quot;&gt;initAd&lt;/font&gt;&lt;/p&gt;&lt;/div&gt;" tags="Background" id="4p80e4eXdYzrRjhIBqF1-36">
          <mxCell style="vsdxID=36;edgeStyle=none;startArrow=none;endArrow=block;startSize=5;endSize=5;strokeWidth=2;spacingTop=0;spacingBottom=0;spacingLeft=0;spacingRight=0;verticalAlign=middle;html=1;labelBackgroundColor=#ffffff;rounded=0;align=center;exitX=1;exitY=0.48936170212765956;exitDx=0;exitDy=0;exitPerimeter=0;entryX=0;entryY=0.5476190476190477;entryDx=0;entryDy=0;entryPerimeter=0;" edge="1" parent="1" source="4p80e4eXdYzrRjhIBqF1-6" target="4p80e4eXdYzrRjhIBqF1-7">
            <mxGeometry relative="1" as="geometry">
              <mxPoint x="-22" y="-1" as="offset" />
              <Array as="points">
                <mxPoint x="582.25" y="107" />
                <mxPoint x="582.25" y="107" />
              </Array>
            </mxGeometry>
          </mxCell>
        </UserObject>
        <UserObject label="&lt;div style=&quot;font-size: 1px&quot;&gt;&lt;p style=&quot;text-align:center;margin-left:0;margin-right:0;margin-top:0px;margin-bottom:0px;text-indent:0;vertical-align:middle;direction:ltr;&quot;&gt;&lt;font style=&quot;font-size:12px;font-family:0;color:#000000;direction:ltr;letter-spacing:0px;line-height:120%;opacity:1&quot;&gt;onLoadFailed&lt;/font&gt;&lt;/p&gt;&lt;/div&gt;" tags="Background" id="4p80e4eXdYzrRjhIBqF1-37">
          <mxCell style="vsdxID=37;edgeStyle=none;startArrow=none;endArrow=block;startSize=5;endSize=5;strokeWidth=2;spacingTop=0;spacingBottom=0;spacingLeft=0;spacingRight=0;verticalAlign=middle;html=1;labelBackgroundColor=#ffffff;rounded=0;align=center;exitX=0;exitY=0.5;exitDx=0;exitDy=0;exitPerimeter=0;entryX=0;entryY=0.5;entryDx=0;entryDy=0;entryPerimeter=0;" edge="1" parent="1" source="4p80e4eXdYzrRjhIBqF1-16" target="4p80e4eXdYzrRjhIBqF1-21">
            <mxGeometry relative="1" as="geometry">
              <mxPoint x="167" y="-1" as="offset" />
              <Array as="points">
                <mxPoint x="365.9" y="491" />
                <mxPoint x="365.9" y="544" />
                <mxPoint x="1118.4" y="544" />
                <mxPoint x="1118.4" y="491" />
              </Array>
            </mxGeometry>
          </mxCell>
        </UserObject>
      </root>
    </mxGraphModel>
  </diagram>
</mxfile>
